<?xml version="1.0" standalone="no"?>
<!DOCTYPE svg PUBLIC "-//W3C//DTD SVG 20010904//EN"
 "http://www.w3.org/TR/2001/REC-SVG-20010904/DTD/svg10.dtd">
<svg version="1.0" xmlns="http://www.w3.org/2000/svg"
 width="270.000000pt" height="270.000000pt" viewBox="0 0 270.000000 270.000000"
 preserveAspectRatio="xMidYMid meet">

<g transform="translate(0.000000,270.000000) scale(0.100000,-0.100000)"
fill="#000000" stroke="none">
<path d="M1174 2096 c-280 -64 -520 -296 -579 -561 -25 -110 -17 -272 19 -381
77 -240 286 -430 541 -494 118 -30 285 -30 396 -1 263 68 467 259 546 511 23
73 27 103 28 210 0 146 -12 203 -67 320 -34 71 -55 100 -132 175 -78 78 -106
98 -196 143 -58 29 -132 59 -165 68 -82 23 -310 28 -391 10z m255 -52 l62 -7
-3 -136 -3 -136 -120 0 -120 0 -3 129 c-1 72 0 136 2 143 6 15 83 17 185 7z
m-269 -57 c0 -30 -4 -34 -52 -51 -73 -26 -148 -77 -210 -145 -65 -70 -156
-234 -165 -296 -5 -43 -7 -45 -39 -45 -40 0 -43 15 -18 101 54 183 189 339
373 428 47 23 91 41 98 41 8 0 13 -12 13 -33z m535 -22 c193 -94 326 -268 350
-458 l7 -57 -39 0 -38 0 -12 61 c-7 39 -21 71 -36 88 -13 14 -32 46 -41 70
-47 121 -154 213 -308 265 -13 4 -18 16 -18 46 0 38 2 41 23 35 12 -3 63 -26
112 -50z m-525 -145 l0 -61 -77 3 c-66 3 -78 6 -81 21 -7 36 74 96 131 97 27
0 27 -1 27 -60z m469 37 c52 -27 90 -72 74 -88 -5 -5 -40 -9 -79 -7 l-69 3 -3
58 c-4 67 5 71 77 34z m161 -457 c0 -254 -3 -316 -15 -339 -23 -46 -101 -107
-173 -137 -64 -27 -74 -28 -242 -28 -159 -1 -181 1 -243 22 -75 26 -134 67
-181 125 l-31 39 -3 301 c-2 165 -1 306 2 314 4 10 88 13 446 13 l440 0 0
-310z m-939 166 c8 -16 8 -87 3 -232 -9 -206 -9 -209 -31 -212 -36 -5 -43 32
-43 236 0 154 3 192 16 210 20 29 42 28 55 -2z m1043 -4 c2 -4 7 -101 10 -214
5 -178 3 -209 -10 -223 -12 -11 -20 -12 -35 -5 -18 10 -19 23 -19 224 0 117 3
216 7 219 9 10 41 9 47 -1z m-1170 -269 c-7 -95 -14 -120 -15 -57 0 21 -5 48
-10 59 -8 17 -8 15 -4 -7 3 -16 3 -28 1 -28 -3 0 -12 12 -20 28 l-15 27 -2
-25 -1 -25 -8 25 c-4 14 -8 40 -9 58 -1 32 0 32 44 32 l45 0 -6 -87z m1314 5
c-6 -106 -41 -201 -76 -206 -21 -3 -23 -1 -16 20 11 34 12 52 13 166 l1 102
41 0 42 0 -5 -82z m-1311 -180 c-3 -8 -6 -5 -6 6 -1 11 2 17 5 13 3 -3 4 -12
1 -19z m1204 -116 c-107 -151 -297 -268 -466 -288 l-55 -7 0 50 c0 60 12 73
65 73 108 0 268 71 336 149 41 47 47 50 92 51 l48 0 -20 -28z m-916 -144 c-9
-6 -19 -7 -22 -4 -4 3 -1 6 6 6 7 0 9 4 6 10 -4 6 1 7 11 3 15 -6 15 -7 -1
-15z m62 -10 c15 -6 78 -14 138 -17 l110 -6 3 -59 3 -59 -73 6 c-78 7 -207 45
-264 79 -19 11 -34 22 -34 24 0 4 58 32 87 43 1 1 14 -4 30 -11z"/>
<path d="M1025 1501 c-114 -52 -135 -171 -44 -248 26 -22 30 -31 25 -62 -8
-51 13 -99 57 -135 l39 -31 233 -3 c216 -3 238 -2 279 17 59 26 86 69 86 139
0 44 4 56 26 75 105 90 47 251 -95 265 -68 6 -132 -19 -171 -66 -25 -30 -30
-46 -30 -89 0 -67 31 -106 117 -144 71 -33 83 -55 56 -101 -27 -46 -61 -51
-281 -45 -221 6 -235 11 -230 76 3 33 8 38 69 67 66 32 94 61 110 117 20 70
-36 154 -118 176 -53 15 -82 13 -128 -8z m142 -81 c30 -27 37 -56 22 -91 -12
-30 -54 -59 -84 -59 -51 0 -113 69 -100 110 18 56 119 81 162 40z m508 -5 c58
-58 6 -153 -77 -142 -45 6 -63 19 -84 59 -30 57 12 108 88 108 39 0 54 -5 73
-25z"/>
<path d="M2076 2049 c-45 -39 -55 -84 -30 -136 25 -50 73 -77 120 -69 85 16
129 108 85 179 -40 65 -118 77 -175 26z m120 -65 c12 -17 13 -27 4 -43 -16
-31 -46 -44 -70 -31 -45 24 -49 78 -7 97 29 13 55 5 73 -23z"/>
</g>
</svg>
